<svg xmlns="http://www.w3.org/2000/svg" width="208" height="250" viewBox="0 0 208 250">
  <g id="Group_23" data-name="Group 23" transform="translate(-80 -213)">
    <circle id="Ellipse_7" data-name="Ellipse 7" cx="5" cy="5" r="5" transform="translate(80 213)" fill="#f1f1f1"/>
    <circle id="Ellipse_7-2" data-name="Ellipse 7" cx="5" cy="5" r="5" transform="translate(102 213)" fill="#f1f1f1"/>
    <circle id="Ellipse_7-3" data-name="Ellipse 7" cx="5" cy="5" r="5" transform="translate(124 213)" fill="#f1f1f1"/>
    <circle id="Ellipse_7-4" data-name="Ellipse 7" cx="5" cy="5" r="5" transform="translate(146 213)" fill="#f1f1f1"/>
    <circle id="Ellipse_7-5" data-name="Ellipse 7" cx="5" cy="5" r="5" transform="translate(168 213)" fill="#f1f1f1"/>
    <circle id="Ellipse_7-6" data-name="Ellipse 7" cx="5" cy="5" r="5" transform="translate(190 213)" fill="#f1f1f1"/>
    <circle id="Ellipse_7-7" data-name="Ellipse 7" cx="5" cy="5" r="5" transform="translate(212 213)" fill="#f1f1f1"/>
    <circle id="Ellipse_7-8" data-name="Ellipse 7" cx="5" cy="5" r="5" transform="translate(234 213)" fill="#f1f1f1"/>
    <circle id="Ellipse_7-9" data-name="Ellipse 7" cx="5" cy="5" r="5" transform="translate(256 213)" fill="#f1f1f1"/>
    <circle id="Ellipse_7-10" data-name="Ellipse 7" cx="5" cy="5" r="5" transform="translate(278 213)" fill="#f1f1f1"/>
    <circle id="Ellipse_7-11" data-name="Ellipse 7" cx="5" cy="5" r="5" transform="translate(80 243)" fill="#f1f1f1"/>
    <circle id="Ellipse_7-12" data-name="Ellipse 7" cx="5" cy="5" r="5" transform="translate(102 243)" fill="#f1f1f1"/>
    <circle id="Ellipse_7-13" data-name="Ellipse 7" cx="5" cy="5" r="5" transform="translate(124 243)" fill="#f1f1f1"/>
    <circle id="Ellipse_7-14" data-name="Ellipse 7" cx="5" cy="5" r="5" transform="translate(146 243)" fill="#f1f1f1"/>
    <circle id="Ellipse_7-15" data-name="Ellipse 7" cx="5" cy="5" r="5" transform="translate(168 243)" fill="#f1f1f1"/>
    <circle id="Ellipse_7-16" data-name="Ellipse 7" cx="5" cy="5" r="5" transform="translate(190 243)" fill="#f1f1f1"/>
    <circle id="Ellipse_7-17" data-name="Ellipse 7" cx="5" cy="5" r="5" transform="translate(212 243)" fill="#f1f1f1"/>
    <circle id="Ellipse_7-18" data-name="Ellipse 7" cx="5" cy="5" r="5" transform="translate(234 243)" fill="#f1f1f1"/>
    <circle id="Ellipse_7-19" data-name="Ellipse 7" cx="5" cy="5" r="5" transform="translate(256 243)" fill="#f1f1f1"/>
    <circle id="Ellipse_7-20" data-name="Ellipse 7" cx="5" cy="5" r="5" transform="translate(278 243)" fill="#f1f1f1"/>
    <circle id="Ellipse_7-21" data-name="Ellipse 7" cx="5" cy="5" r="5" transform="translate(80 273)" fill="#f1f1f1"/>
    <circle id="Ellipse_7-22" data-name="Ellipse 7" cx="5" cy="5" r="5" transform="translate(102 273)" fill="#f1f1f1"/>
    <circle id="Ellipse_7-23" data-name="Ellipse 7" cx="5" cy="5" r="5" transform="translate(124 273)" fill="#f1f1f1"/>
    <circle id="Ellipse_7-24" data-name="Ellipse 7" cx="5" cy="5" r="5" transform="translate(146 273)" fill="#f1f1f1"/>
    <circle id="Ellipse_7-25" data-name="Ellipse 7" cx="5" cy="5" r="5" transform="translate(168 273)" fill="#f1f1f1"/>
    <circle id="Ellipse_7-26" data-name="Ellipse 7" cx="5" cy="5" r="5" transform="translate(190 273)" fill="#f1f1f1"/>
    <circle id="Ellipse_7-27" data-name="Ellipse 7" cx="5" cy="5" r="5" transform="translate(212 273)" fill="#f1f1f1"/>
    <circle id="Ellipse_7-28" data-name="Ellipse 7" cx="5" cy="5" r="5" transform="translate(234 273)" fill="#f1f1f1"/>
    <circle id="Ellipse_7-29" data-name="Ellipse 7" cx="5" cy="5" r="5" transform="translate(256 273)" fill="#f1f1f1"/>
    <circle id="Ellipse_7-30" data-name="Ellipse 7" cx="5" cy="5" r="5" transform="translate(278 273)" fill="#f1f1f1"/>
    <circle id="Ellipse_7-31" data-name="Ellipse 7" cx="5" cy="5" r="5" transform="translate(80 303)" fill="#f1f1f1"/>
    <circle id="Ellipse_7-32" data-name="Ellipse 7" cx="5" cy="5" r="5" transform="translate(102 303)" fill="#f1f1f1"/>
    <circle id="Ellipse_7-33" data-name="Ellipse 7" cx="5" cy="5" r="5" transform="translate(124 303)" fill="#f1f1f1"/>
    <circle id="Ellipse_7-34" data-name="Ellipse 7" cx="5" cy="5" r="5" transform="translate(146 303)" fill="#f1f1f1"/>
    <circle id="Ellipse_7-35" data-name="Ellipse 7" cx="5" cy="5" r="5" transform="translate(168 303)" fill="#f1f1f1"/>
    <circle id="Ellipse_7-36" data-name="Ellipse 7" cx="5" cy="5" r="5" transform="translate(190 303)" fill="#f1f1f1"/>
    <circle id="Ellipse_7-37" data-name="Ellipse 7" cx="5" cy="5" r="5" transform="translate(212 303)" fill="#f1f1f1"/>
    <circle id="Ellipse_7-38" data-name="Ellipse 7" cx="5" cy="5" r="5" transform="translate(234 303)" fill="#f1f1f1"/>
    <circle id="Ellipse_7-39" data-name="Ellipse 7" cx="5" cy="5" r="5" transform="translate(256 303)" fill="#f1f1f1"/>
    <circle id="Ellipse_7-40" data-name="Ellipse 7" cx="5" cy="5" r="5" transform="translate(278 303)" fill="#f1f1f1"/>
    <circle id="Ellipse_7-41" data-name="Ellipse 7" cx="5" cy="5" r="5" transform="translate(80 333)" fill="#f1f1f1"/>
    <circle id="Ellipse_7-42" data-name="Ellipse 7" cx="5" cy="5" r="5" transform="translate(102 333)" fill="#f1f1f1"/>
    <circle id="Ellipse_7-43" data-name="Ellipse 7" cx="5" cy="5" r="5" transform="translate(124 333)" fill="#f1f1f1"/>
    <circle id="Ellipse_7-44" data-name="Ellipse 7" cx="5" cy="5" r="5" transform="translate(146 333)" fill="#f1f1f1"/>
    <circle id="Ellipse_7-45" data-name="Ellipse 7" cx="5" cy="5" r="5" transform="translate(168 333)" fill="#f1f1f1"/>
    <circle id="Ellipse_7-46" data-name="Ellipse 7" cx="5" cy="5" r="5" transform="translate(190 333)" fill="#f1f1f1"/>
    <circle id="Ellipse_7-47" data-name="Ellipse 7" cx="5" cy="5" r="5" transform="translate(212 333)" fill="#f1f1f1"/>
    <circle id="Ellipse_7-48" data-name="Ellipse 7" cx="5" cy="5" r="5" transform="translate(234 333)" fill="#f1f1f1"/>
    <circle id="Ellipse_7-49" data-name="Ellipse 7" cx="5" cy="5" r="5" transform="translate(256 333)" fill="#f1f1f1"/>
    <circle id="Ellipse_7-50" data-name="Ellipse 7" cx="5" cy="5" r="5" transform="translate(278 333)" fill="#f1f1f1"/>
    <circle id="Ellipse_7-51" data-name="Ellipse 7" cx="5" cy="5" r="5" transform="translate(80 363)" fill="#f1f1f1"/>
    <circle id="Ellipse_7-52" data-name="Ellipse 7" cx="5" cy="5" r="5" transform="translate(102 363)" fill="#f1f1f1"/>
    <circle id="Ellipse_7-53" data-name="Ellipse 7" cx="5" cy="5" r="5" transform="translate(124 363)" fill="#f1f1f1"/>
    <circle id="Ellipse_7-54" data-name="Ellipse 7" cx="5" cy="5" r="5" transform="translate(146 363)" fill="#f1f1f1"/>
    <circle id="Ellipse_7-55" data-name="Ellipse 7" cx="5" cy="5" r="5" transform="translate(168 363)" fill="#f1f1f1"/>
    <circle id="Ellipse_7-56" data-name="Ellipse 7" cx="5" cy="5" r="5" transform="translate(190 363)" fill="#f1f1f1"/>
    <circle id="Ellipse_7-57" data-name="Ellipse 7" cx="5" cy="5" r="5" transform="translate(212 363)" fill="#f1f1f1"/>
    <circle id="Ellipse_7-58" data-name="Ellipse 7" cx="5" cy="5" r="5" transform="translate(234 363)" fill="#f1f1f1"/>
    <circle id="Ellipse_7-59" data-name="Ellipse 7" cx="5" cy="5" r="5" transform="translate(256 363)" fill="#f1f1f1"/>
    <circle id="Ellipse_7-60" data-name="Ellipse 7" cx="5" cy="5" r="5" transform="translate(278 363)" fill="#f1f1f1"/>
    <circle id="Ellipse_7-61" data-name="Ellipse 7" cx="5" cy="5" r="5" transform="translate(80 393)" fill="#f1f1f1"/>
    <circle id="Ellipse_7-62" data-name="Ellipse 7" cx="5" cy="5" r="5" transform="translate(102 393)" fill="#f1f1f1"/>
    <circle id="Ellipse_7-63" data-name="Ellipse 7" cx="5" cy="5" r="5" transform="translate(124 393)" fill="#f1f1f1"/>
    <circle id="Ellipse_7-64" data-name="Ellipse 7" cx="5" cy="5" r="5" transform="translate(146 393)" fill="#f1f1f1"/>
    <circle id="Ellipse_7-65" data-name="Ellipse 7" cx="5" cy="5" r="5" transform="translate(168 393)" fill="#f1f1f1"/>
    <circle id="Ellipse_7-66" data-name="Ellipse 7" cx="5" cy="5" r="5" transform="translate(190 393)" fill="#f1f1f1"/>
    <circle id="Ellipse_7-67" data-name="Ellipse 7" cx="5" cy="5" r="5" transform="translate(212 393)" fill="#f1f1f1"/>
    <circle id="Ellipse_7-68" data-name="Ellipse 7" cx="5" cy="5" r="5" transform="translate(234 393)" fill="#f1f1f1"/>
    <circle id="Ellipse_7-69" data-name="Ellipse 7" cx="5" cy="5" r="5" transform="translate(256 393)" fill="#f1f1f1"/>
    <circle id="Ellipse_7-70" data-name="Ellipse 7" cx="5" cy="5" r="5" transform="translate(278 393)" fill="#f1f1f1"/>
    <circle id="Ellipse_7-71" data-name="Ellipse 7" cx="5" cy="5" r="5" transform="translate(80 423)" fill="#f1f1f1"/>
    <circle id="Ellipse_7-72" data-name="Ellipse 7" cx="5" cy="5" r="5" transform="translate(102 423)" fill="#f1f1f1"/>
    <circle id="Ellipse_7-73" data-name="Ellipse 7" cx="5" cy="5" r="5" transform="translate(124 423)" fill="#f1f1f1"/>
    <circle id="Ellipse_7-74" data-name="Ellipse 7" cx="5" cy="5" r="5" transform="translate(146 423)" fill="#f1f1f1"/>
    <circle id="Ellipse_7-75" data-name="Ellipse 7" cx="5" cy="5" r="5" transform="translate(168 423)" fill="#f1f1f1"/>
    <circle id="Ellipse_7-76" data-name="Ellipse 7" cx="5" cy="5" r="5" transform="translate(190 423)" fill="#f1f1f1"/>
    <circle id="Ellipse_7-77" data-name="Ellipse 7" cx="5" cy="5" r="5" transform="translate(212 423)" fill="#f1f1f1"/>
    <circle id="Ellipse_7-78" data-name="Ellipse 7" cx="5" cy="5" r="5" transform="translate(234 423)" fill="#f1f1f1"/>
    <circle id="Ellipse_7-79" data-name="Ellipse 7" cx="5" cy="5" r="5" transform="translate(256 423)" fill="#f1f1f1"/>
    <circle id="Ellipse_7-80" data-name="Ellipse 7" cx="5" cy="5" r="5" transform="translate(278 423)" fill="#f1f1f1"/>
    <circle id="Ellipse_7-81" data-name="Ellipse 7" cx="5" cy="5" r="5" transform="translate(80 453)" fill="#f1f1f1"/>
    <circle id="Ellipse_7-82" data-name="Ellipse 7" cx="5" cy="5" r="5" transform="translate(102 453)" fill="#f1f1f1"/>
    <circle id="Ellipse_7-83" data-name="Ellipse 7" cx="5" cy="5" r="5" transform="translate(124 453)" fill="#f1f1f1"/>
    <circle id="Ellipse_7-84" data-name="Ellipse 7" cx="5" cy="5" r="5" transform="translate(146 453)" fill="#f1f1f1"/>
    <circle id="Ellipse_7-85" data-name="Ellipse 7" cx="5" cy="5" r="5" transform="translate(168 453)" fill="#f1f1f1"/>
    <circle id="Ellipse_7-86" data-name="Ellipse 7" cx="5" cy="5" r="5" transform="translate(190 453)" fill="#f1f1f1"/>
    <circle id="Ellipse_7-87" data-name="Ellipse 7" cx="5" cy="5" r="5" transform="translate(212 453)" fill="#f1f1f1"/>
    <circle id="Ellipse_7-88" data-name="Ellipse 7" cx="5" cy="5" r="5" transform="translate(234 453)" fill="#f1f1f1"/>
    <circle id="Ellipse_7-89" data-name="Ellipse 7" cx="5" cy="5" r="5" transform="translate(256 453)" fill="#f1f1f1"/>
    <circle id="Ellipse_7-90" data-name="Ellipse 7" cx="5" cy="5" r="5" transform="translate(278 453)" fill="#f1f1f1"/>
  </g>
</svg>
